# Blender v2.93.1 OBJ File: ''
# www.blender.org
mtllib ghast.mtl
o Box001_Mesh
v -0.203200 -0.203200 -0.203200
v 0.203200 -0.203200 -0.203200
v -0.203200 0.203200 -0.203200
v 0.203200 0.203200 -0.203200
v -0.203200 -0.203200 0.203200
v 0.203200 -0.203200 0.203200
v -0.203200 0.203200 0.203200
v 0.203200 0.203200 0.203200
v -0.152400 -0.515807 -0.018493
v -0.101600 -0.515807 -0.018493
v -0.152400 -0.181653 0.103129
v -0.101600 -0.181653 0.103129
v -0.152400 -0.533182 0.029243
v -0.101600 -0.533182 0.029243
v -0.152400 -0.199027 0.150865
v -0.101600 -0.199027 0.150865
v -0.025400 -0.515807 -0.018493
v 0.025400 -0.515807 -0.018493
v -0.025400 -0.181653 0.103129
v 0.025400 -0.181653 0.103129
v -0.025400 -0.533182 0.029243
v 0.025400 -0.533182 0.029243
v -0.025400 -0.199027 0.150865
v 0.025400 -0.199027 0.150865
v 0.101600 -0.515807 -0.018493
v 0.152400 -0.515807 -0.018493
v 0.101600 -0.181653 0.103129
v 0.152400 -0.181653 0.103129
v 0.101600 -0.533182 0.029243
v 0.152400 -0.533182 0.029243
v 0.101600 -0.199027 0.150865
v 0.152400 -0.199027 0.150865
v 0.101600 -0.515807 -0.272493
v 0.152400 -0.515807 -0.272493
v 0.101600 -0.181653 -0.150871
v 0.152400 -0.181653 -0.150871
v 0.101600 -0.533182 -0.224757
v 0.152400 -0.533182 -0.224757
v 0.101600 -0.199027 -0.103135
v 0.152400 -0.199027 -0.103135
v -0.025400 -0.515807 -0.272317
v 0.025400 -0.515807 -0.272317
v -0.025400 -0.181653 -0.150694
v 0.025400 -0.181653 -0.150694
v -0.025400 -0.533182 -0.224580
v 0.025400 -0.533182 -0.224580
v -0.025400 -0.199027 -0.102958
v 0.025400 -0.199027 -0.102958
v -0.152400 -0.515807 -0.272493
v -0.101600 -0.515807 -0.272493
v -0.152400 -0.181653 -0.150871
v -0.101600 -0.181653 -0.150871
v -0.152400 -0.533182 -0.224757
v -0.101600 -0.533182 -0.224757
v -0.152400 -0.199027 -0.103135
v -0.101600 -0.199027 -0.103135
v -0.152400 -0.515807 -0.145493
v -0.101600 -0.515807 -0.145493
v -0.152400 -0.181653 -0.023871
v -0.101600 -0.181653 -0.023871
v -0.152400 -0.533182 -0.097757
v -0.101600 -0.533182 -0.097757
v -0.152400 -0.199027 0.023865
v -0.101600 -0.199027 0.023865
v 0.101600 -0.515807 -0.145493
v 0.152400 -0.515807 -0.145493
v 0.101600 -0.181653 -0.023871
v 0.152400 -0.181653 -0.023871
v 0.101600 -0.533182 -0.097757
v 0.152400 -0.533182 -0.097757
v 0.101600 -0.199027 0.023865
v 0.152400 -0.199027 0.023865
v -0.025400 -0.515807 -0.145493
v 0.025400 -0.515807 -0.145493
v -0.025400 -0.181653 -0.023871
v 0.025400 -0.181653 -0.023871
v -0.025400 -0.533182 -0.097757
v 0.025400 -0.533182 -0.097757
v -0.025400 -0.199027 0.023865
v 0.025400 -0.199027 0.023865
vt 1.000000 0.750000
vt 0.750000 0.500000
vt 1.000000 0.500000
vt 0.500000 0.500000
vt 0.250000 0.750000
vt 0.250000 0.500000
vt 0.750000 1.000000
vt 0.500000 0.750000
vt 0.500000 1.000000
vt 0.750000 0.750000
vt 0.250000 1.000000
vt 0.500000 0.750000
vt 0.500000 1.000000
vt 0.000000 0.500000
vt 0.000000 0.750000
vt 0.125000 0.968721
vt 0.093895 0.750000
vt 0.125000 0.750000
vt 0.062500 0.750000
vt 0.031428 0.968721
vt 0.031428 0.750000
vt 0.093895 1.000000
vt 0.062500 0.968721
vt 0.093895 0.968721
vt 0.093895 0.968721
vt 0.031428 1.000000
vt 0.062500 0.968721
vt 0.062500 1.000000
vt 0.000000 0.968721
vt 0.125000 0.968721
vt 0.093895 0.750000
vt 0.125000 0.750000
vt 0.062500 0.750000
vt 0.031428 0.968721
vt 0.031428 0.750000
vt 0.093895 1.000000
vt 0.062500 0.968721
vt 0.093895 0.968721
vt 0.093895 0.968721
vt 0.031428 1.000000
vt 0.062500 0.968721
vt 0.062500 1.000000
vt 0.000000 0.968721
vt 0.125000 0.968721
vt 0.093895 0.750000
vt 0.125000 0.750000
vt 0.062500 0.750000
vt 0.031428 0.968721
vt 0.031428 0.750000
vt 0.093895 1.000000
vt 0.062500 0.968721
vt 0.093895 0.968721
vt 0.093895 0.968721
vt 0.031428 1.000000
vt 0.062500 0.968721
vt 0.062500 1.000000
vt 0.000000 0.968721
vt 0.125000 0.968721
vt 0.093895 0.750000
vt 0.125000 0.750000
vt 0.062500 0.750000
vt 0.031428 0.968721
vt 0.031428 0.750000
vt 0.093895 1.000000
vt 0.062500 0.968721
vt 0.093895 0.968721
vt 0.062500 0.968721
vt 0.031428 1.000000
vt 0.062500 1.000000
vt 0.000000 0.750000
vt 0.000000 0.968721
vt 0.125000 0.968721
vt 0.093895 0.750000
vt 0.125000 0.750000
vt 0.062500 0.750000
vt 0.031428 0.968721
vt 0.031428 0.750000
vt 0.093895 1.000000
vt 0.062500 0.968721
vt 0.093895 0.968721
vt 0.062500 0.968721
vt 0.031428 1.000000
vt 0.062500 1.000000
vt 0.000000 0.750000
vt 0.000000 0.968721
vt 0.125000 0.968721
vt 0.093895 0.750000
vt 0.125000 0.750000
vt 0.062500 0.750000
vt 0.031428 0.968721
vt 0.031428 0.750000
vt 0.093895 1.000000
vt 0.062500 0.968721
vt 0.093895 0.968721
vt 0.062500 0.968721
vt 0.031428 1.000000
vt 0.062500 1.000000
vt 0.000000 0.750000
vt 0.000000 0.968721
vt 0.125000 0.968721
vt 0.093895 0.750000
vt 0.125000 0.750000
vt 0.062500 0.750000
vt 0.031428 0.968721
vt 0.031428 0.750000
vt 0.093895 1.000000
vt 0.062500 0.968721
vt 0.093895 0.968721
vt 0.062500 0.968721
vt 0.031428 1.000000
vt 0.062500 1.000000
vt 0.000000 0.750000
vt 0.000000 0.968721
vt 0.125000 0.968721
vt 0.093895 0.750000
vt 0.125000 0.750000
vt 0.062500 0.750000
vt 0.031428 0.968721
vt 0.031428 0.750000
vt 0.093895 1.000000
vt 0.062500 0.968721
vt 0.093895 0.968721
vt 0.062500 0.968721
vt 0.031428 1.000000
vt 0.062500 1.000000
vt 0.000000 0.750000
vt 0.000000 0.968721
vt 0.125000 0.968721
vt 0.093895 0.750000
vt 0.125000 0.750000
vt 0.062500 0.750000
vt 0.031428 0.968721
vt 0.031428 0.750000
vt 0.093895 1.000000
vt 0.062500 0.968721
vt 0.093895 0.968721
vt 0.062500 0.968721
vt 0.031428 1.000000
vt 0.062500 1.000000
vt 0.000000 0.750000
vt 0.000000 0.968721
vt 0.750000 0.750000
vt 0.062500 1.000000
vt 0.000000 0.750000
vt 0.062500 1.000000
vt 0.000000 0.750000
vt 0.062500 1.000000
vt 0.000000 0.750000
vt 0.093895 0.968721
vt 0.062500 1.000000
vt 0.093895 0.968721
vt 0.062500 1.000000
vt 0.093895 0.968721
vt 0.062500 1.000000
vt 0.093895 0.968721
vt 0.062500 1.000000
vt 0.093895 0.968721
vt 0.062500 1.000000
vt 0.093895 0.968721
vt 0.062500 1.000000
vn 0.0000 0.0000 -1.0000
vn 0.0000 -0.0000 1.0000
vn 0.0000 -1.0000 -0.0000
vn 1.0000 -0.0000 0.0000
vn 0.0000 1.0000 0.0000
vn -1.0000 -0.0000 0.0000
vn 0.0000 0.3420 -0.9397
vn 0.0000 -0.3420 0.9397
vn 0.0000 -0.9397 -0.3420
vn 0.0000 0.9397 0.3420
usemtl 01_-_Default
s 1
f 3/1/1 2/2/1 1/3/1
f 6/4/2 7/5/2 5/6/2
f 2/7/3 5/8/3 1/9/3
f 4/10/4 6/4/4 2/2/4
f 3/11/5 8/12/5 4/13/5
f 1/14/6 7/5/6 3/15/6
f 11/16/7 10/17/7 9/18/7
f 14/19/8 15/20/8 13/21/8
f 10/22/9 13/23/9 9/24/9
f 12/25/4 14/19/4 10/17/4
f 11/26/10 16/27/10 12/28/10
f 11/29/6 13/21/6 15/20/6
f 19/30/7 18/31/7 17/32/7
f 22/33/8 23/34/8 21/35/8
f 18/36/9 21/37/9 17/38/9
f 20/39/4 22/33/4 18/31/4
f 19/40/10 24/41/10 20/42/10
f 19/43/6 21/35/6 23/34/6
f 27/44/7 26/45/7 25/46/7
f 30/47/8 31/48/8 29/49/8
f 26/50/9 29/51/9 25/52/9
f 28/53/4 30/47/4 26/45/4
f 27/54/10 32/55/10 28/56/10
f 27/57/6 29/49/6 31/48/6
f 35/58/7 34/59/7 33/60/7
f 38/61/8 39/62/8 37/63/8
f 34/64/9 37/65/9 33/66/9
f 34/59/4 40/67/4 38/61/4
f 35/68/10 40/67/10 36/69/10
f 33/70/6 39/62/6 35/71/6
f 43/72/7 42/73/7 41/74/7
f 46/75/8 47/76/8 45/77/8
f 42/78/9 45/79/9 41/80/9
f 42/73/4 48/81/4 46/75/4
f 43/82/10 48/81/10 44/83/10
f 41/84/6 47/76/6 43/85/6
f 51/86/7 50/87/7 49/88/7
f 54/89/8 55/90/8 53/91/8
f 50/92/9 53/93/9 49/94/9
f 50/87/4 56/95/4 54/89/4
f 51/96/10 56/95/10 52/97/10
f 49/98/6 55/90/6 51/99/6
f 59/100/7 58/101/7 57/102/7
f 62/103/8 63/104/8 61/105/8
f 58/106/9 61/107/9 57/108/9
f 58/101/4 64/109/4 62/103/4
f 59/110/10 64/109/10 60/111/10
f 57/112/6 63/104/6 59/113/6
f 67/114/7 66/115/7 65/116/7
f 70/117/8 71/118/8 69/119/8
f 66/120/9 69/121/9 65/122/9
f 66/115/4 72/123/4 70/117/4
f 67/124/10 72/123/10 68/125/10
f 65/126/6 71/118/6 67/127/6
f 75/128/7 74/129/7 73/130/7
f 78/131/8 79/132/8 77/133/8
f 74/134/9 77/135/9 73/136/9
f 74/129/4 80/137/4 78/131/4
f 75/138/10 80/137/10 76/139/10
f 73/140/6 79/132/6 75/141/6
f 3/1/1 4/10/1 2/2/1
f 6/4/2 8/12/2 7/5/2
f 2/7/3 6/142/3 5/8/3
f 4/10/4 8/12/4 6/4/4
f 3/11/5 7/5/5 8/12/5
f 1/14/6 5/6/6 7/5/6
f 11/16/7 12/25/7 10/17/7
f 14/19/8 16/27/8 15/20/8
f 10/22/9 14/143/9 13/23/9
f 12/25/4 16/27/4 14/19/4
f 11/26/10 15/20/10 16/27/10
f 11/29/6 9/144/6 13/21/6
f 19/30/7 20/39/7 18/31/7
f 22/33/8 24/41/8 23/34/8
f 18/36/9 22/145/9 21/37/9
f 20/39/4 24/41/4 22/33/4
f 19/40/10 23/34/10 24/41/10
f 19/43/6 17/146/6 21/35/6
f 27/44/7 28/53/7 26/45/7
f 30/47/8 32/55/8 31/48/8
f 26/50/9 30/147/9 29/51/9
f 28/53/4 32/55/4 30/47/4
f 27/54/10 31/48/10 32/55/10
f 27/57/6 25/148/6 29/49/6
f 35/58/7 36/149/7 34/59/7
f 38/61/8 40/67/8 39/62/8
f 34/64/9 38/150/9 37/65/9
f 34/59/4 36/149/4 40/67/4
f 35/68/10 39/62/10 40/67/10
f 33/70/6 37/63/6 39/62/6
f 43/72/7 44/151/7 42/73/7
f 46/75/8 48/81/8 47/76/8
f 42/78/9 46/152/9 45/79/9
f 42/73/4 44/151/4 48/81/4
f 43/82/10 47/76/10 48/81/10
f 41/84/6 45/77/6 47/76/6
f 51/86/7 52/153/7 50/87/7
f 54/89/8 56/95/8 55/90/8
f 50/92/9 54/154/9 53/93/9
f 50/87/4 52/153/4 56/95/4
f 51/96/10 55/90/10 56/95/10
f 49/98/6 53/91/6 55/90/6
f 59/100/7 60/155/7 58/101/7
f 62/103/8 64/109/8 63/104/8
f 58/106/9 62/156/9 61/107/9
f 58/101/4 60/155/4 64/109/4
f 59/110/10 63/104/10 64/109/10
f 57/112/6 61/105/6 63/104/6
f 67/114/7 68/157/7 66/115/7
f 70/117/8 72/123/8 71/118/8
f 66/120/9 70/158/9 69/121/9
f 66/115/4 68/157/4 72/123/4
f 67/124/10 71/118/10 72/123/10
f 65/126/6 69/119/6 71/118/6
f 75/128/7 76/159/7 74/129/7
f 78/131/8 80/137/8 79/132/8
f 74/134/9 78/160/9 77/135/9
f 74/129/4 76/159/4 80/137/4
f 75/138/10 79/132/10 80/137/10
f 73/140/6 77/133/6 79/132/6
