# Blender v2.93.1 OBJ File: ''
# www.blender.org
mtllib lamp.mtl
o cube
v 0.226744 22.128540 0.301636
v 0.265362 0.002295 0.262944
v 0.222835 22.128628 -0.252846
v 0.264483 0.003172 -0.239925
v -0.277003 22.128538 -0.200357
v -0.238386 0.002293 -0.239049
v -0.276126 22.127661 0.302512
v -0.237508 0.001415 0.263820
vt 0.000488 0.991699
vt 0.000488 0.648926
vt 0.007324 0.991699
vt 0.007324 0.648926
vt 0.016113 0.991699
vt 0.016113 0.648926
vt 0.022949 0.991699
vt 0.022949 0.648926
vt 0.015137 0.992676
vt 0.015137 0.999512
vt 0.008301 0.992676
vt 0.008301 0.999512
vt 0.022949 0.999512
vt 0.022949 0.992676
vt 0.016113 0.999512
vt 0.016113 0.992676
vt 0.023926 0.991699
vt 0.023926 0.648926
vt 0.030762 0.991699
vt 0.030762 0.648926
vt 0.008301 0.991699
vt 0.008301 0.648926
vt 0.015137 0.991699
vt 0.015137 0.648926
vn 1.0000 0.0018 -0.0070
vn 1.0000 0.0019 -0.0018
vn 1.0000 0.0019 -0.0017
vn -1.0000 -0.0017 0.0017
vn 0.0000 1.0000 0.0018
vn -0.0009 1.0000 0.0009
vn -0.0009 1.0000 0.0010
vn -0.0017 1.0000 0.0002
vn 0.0017 -1.0000 -0.0018
vn 0.0017 -1.0000 -0.0017
vn 0.0017 -0.0017 1.0000
vn -0.1044 -0.0008 -0.9945
vn -0.0032 0.0017 -1.0000
vn -0.1030 -0.0007 -0.9947
vn -0.0017 0.0017 -1.0000
usemtl 0
s 1
f 1/1/1 2/2/2 3/3/1
f 2/2/2 4/4/3 3/3/1
f 5/5/4 6/6/4 7/7/4
f 6/6/4 8/8/4 7/7/4
f 5/9/5 7/10/6 3/11/7
f 7/10/6 1/12/8 3/11/7
f 8/13/9 6/14/10 2/15/10
f 6/14/10 4/16/10 2/15/10
f 7/17/11 8/18/11 1/19/11
f 8/18/11 2/20/11 1/19/11
f 3/21/12 4/22/13 5/23/14
f 4/22/13 6/24/15 5/23/14
o cube.000
v 1.233360 22.631413 1.306502
v 1.234238 22.128544 1.305622
v 1.225940 22.635012 -1.259457
v 1.229849 22.132931 -1.208724
v -1.288406 22.630615 -1.255076
v -1.284497 22.128536 -1.204343
v -1.284017 22.626225 1.259270
v -1.280109 22.124147 1.310003
vt 0.000488 0.546387
vt 0.000488 0.539551
vt 0.038574 0.546387
vt 0.038574 0.539551
vt 0.078613 0.546387
vt 0.078613 0.539551
vt 0.116699 0.546387
vt 0.116699 0.539551
vt 0.077637 0.547363
vt 0.077637 0.585449
vt 0.039551 0.547363
vt 0.039551 0.585449
vt 0.116699 0.585449
vt 0.116699 0.547363
vt 0.078613 0.585449
vt 0.078613 0.547363
vt 0.117676 0.546387
vt 0.117676 0.539551
vt 0.155762 0.546387
vt 0.155762 0.539551
vt 0.039551 0.546387
vt 0.039551 0.539551
vt 0.077637 0.546387
vt 0.077637 0.539551
vn 1.0000 0.0018 -0.0029
vn 1.0000 0.0025 -0.0027
vn 1.0000 0.0068 -0.0019
vn 1.0000 0.0076 -0.0017
vn -1.0000 -0.0076 0.0017
vn -0.0017 1.0000 0.0017
vn -0.0019 1.0000 0.0016
vn -0.0021 1.0000 0.0014
vn 0.0017 -1.0000 -0.0017
vn -0.0189 0.1004 0.9948
vn -0.0163 0.0876 0.9960
vn -0.0009 0.0111 0.9999
vn 0.0017 -0.0017 1.0000
vn -0.0016 -0.1005 -0.9949
usemtl 0
s 1
f 9/25/16 10/26/17 11/27/18
f 10/26/17 12/28/19 11/27/18
f 13/29/20 14/30/20 15/31/20
f 14/30/20 16/32/20 15/31/20
f 13/33/21 15/34/22 11/35/22
f 15/34/22 9/36/23 11/35/22
f 16/37/24 14/38/24 10/39/24
f 14/38/24 12/40/24 10/39/24
f 15/41/25 16/42/26 9/43/27
f 16/42/26 10/44/28 9/43/27
f 11/45/29 12/46/29 13/47/29
f 12/46/29 14/48/29 13/47/29
o cube.001
v -0.789047 25.144962 -0.748686
v -0.784659 22.630617 -0.753083
v -0.789925 25.145840 -1.251556
v -0.782506 22.632282 -1.204340
v -1.289763 25.145750 -1.199067
v -1.288406 22.630615 -1.255076
v -1.288885 25.144873 -0.696197
v -1.284497 22.630526 -0.700595
vt 0.062988 0.515137
vt 0.062988 0.477051
vt 0.069824 0.515137
vt 0.069824 0.477051
vt 0.078613 0.515137
vt 0.078613 0.477051
vt 0.085449 0.515137
vt 0.085449 0.477051
vt 0.077637 0.516113
vt 0.077637 0.522949
vt 0.070801 0.516113
vt 0.070801 0.522949
vt 0.085449 0.522949
vt 0.085449 0.516113
vt 0.078613 0.522949
vt 0.078613 0.516113
vt 0.086426 0.515137
vt 0.086426 0.477051
vt 0.093262 0.515137
vt 0.093262 0.477051
vt 0.070801 0.515137
vt 0.070801 0.477051
vt 0.077637 0.515137
vt 0.077637 0.477051
vn 1.0000 0.0017 -0.0017
vn 1.0000 0.0029 0.0040
vn 1.0000 0.0019 -0.0010
vn 1.0000 0.0030 0.0048
vn -1.0000 -0.0006 0.0017
vn -1.0000 -0.0016 0.0064
vn -1.0000 -0.0007 0.0025
vn -1.0000 -0.0018 0.0070
vn 0.0000 1.0000 0.0017
vn 0.0002 -1.0000 -0.0002
vn 0.0018 -1.0000 -0.0018
vn 0.0037 -1.0000 -0.0037
vn 0.1044 -0.0016 0.9945
vn -0.1044 -0.0190 -0.9944
vn 0.0743 0.0171 -0.9971
vn -0.0787 -0.0138 -0.9968
vn 0.0997 0.0222 -0.9948
usemtl 0
s 1
f 17/49/30 18/50/31 19/51/32
f 18/50/31 20/52/33 19/51/32
f 21/53/34 22/54/35 23/55/36
f 22/54/35 24/56/37 23/55/36
f 21/57/38 23/58/38 19/59/38
f 23/58/38 17/60/38 19/59/38
f 24/61/39 22/62/40 18/63/40
f 22/62/40 20/64/41 18/63/40
f 23/65/42 24/66/42 17/67/42
f 24/66/42 18/68/42 17/67/42
f 19/69/43 20/70/44 21/71/45
f 20/70/44 22/72/46 21/71/45
o cube.002
v -0.782506 25.142242 1.314403
v -0.778117 22.627895 1.310006
v -0.786415 25.142328 0.759921
v -0.782026 22.627983 0.755524
v -1.289284 25.141449 0.760797
v -1.281864 22.627893 0.808014
v -1.285375 25.141361 1.315279
v -1.284017 22.626225 1.259270
vt 0.031738 0.515137
vt 0.031738 0.477051
vt 0.038574 0.515137
vt 0.038574 0.477051
vt 0.047363 0.515137
vt 0.047363 0.477051
vt 0.054199 0.515137
vt 0.054199 0.477051
vt 0.046387 0.516113
vt 0.046387 0.522949
vt 0.039551 0.516113
vt 0.039551 0.522949
vt 0.054199 0.522949
vt 0.054199 0.516113
vt 0.047363 0.522949
vt 0.047363 0.516113
vt 0.055176 0.515137
vt 0.055176 0.477051
vt 0.062012 0.515137
vt 0.062012 0.477051
vt 0.039551 0.515137
vt 0.039551 0.477051
vt 0.046387 0.515137
vt 0.046387 0.477051
vn 1.0000 0.0018 -0.0070
vn -1.0000 -0.0028 0.0070
vn -1.0000 -0.0008 -0.0032
vn -1.0000 -0.0025 0.0057
vn -1.0000 -0.0004 -0.0048
vn -0.0017 1.0000 0.0002
vn -0.0018 1.0000 0.0002
vn 0.0037 -1.0000 -0.0037
vn 0.0018 -1.0000 -0.0018
vn 0.0002 -1.0000 -0.0002
vn 0.0018 -0.0223 0.9998
vn -0.0870 -0.0045 0.9962
vn -0.0111 -0.0197 0.9997
vn -0.0998 -0.0019 0.9950
vn -0.0017 0.0017 -1.0000
vn -0.0916 -0.0164 -0.9957
vn -0.0146 -0.0009 -0.9999
vn -0.1044 -0.0190 -0.9944
usemtl 0
s 1
f 25/73/47 26/74/47 27/75/47
f 26/74/47 28/76/47 27/75/47
f 29/77/48 30/78/49 31/79/50
f 30/78/49 32/80/51 31/79/50
f 29/81/52 31/82/53 27/83/53
f 31/82/53 25/84/53 27/83/53
f 32/85/54 30/86/55 26/87/55
f 30/86/55 28/88/56 26/87/55
f 31/89/57 32/90/58 25/91/59
f 32/90/58 26/92/60 25/91/59
f 27/93/61 28/94/62 29/95/63
f 28/94/62 30/96/64 29/95/63
o cube.003
v 1.225940 25.144968 1.259286
v 1.230328 22.630623 1.254889
v 1.228094 25.146637 0.808030
v 1.232482 22.632292 0.803632
v 0.722193 25.144966 0.757293
v 0.726582 22.630621 0.752896
v 0.726102 25.144880 1.311775
v 0.730490 22.630533 1.307378
vt 0.000488 0.515137
vt 0.000488 0.477051
vt 0.007324 0.515137
vt 0.007324 0.477051
vt 0.016113 0.515137
vt 0.016113 0.477051
vt 0.022949 0.515137
vt 0.022949 0.477051
vt 0.015137 0.516113
vt 0.015137 0.522949
vt 0.008301 0.516113
vt 0.008301 0.522949
vt 0.022949 0.522949
vt 0.022949 0.516113
vt 0.016113 0.522949
vt 0.016113 0.516113
vt 0.023926 0.515137
vt 0.023926 0.477051
vt 0.030762 0.515137
vt 0.030762 0.477051
vt 0.008301 0.515137
vt 0.008301 0.477051
vt 0.015137 0.515137
vt 0.015137 0.477051
vn 1.0000 0.0017 0.0048
vn -1.0000 -0.0018 0.0070
vn -0.0033 1.0000 0.0002
vn -0.0017 1.0000 0.0018
vn 0.0002 1.0000 0.0037
vn 0.0002 -1.0000 -0.0002
vn 0.0018 -1.0000 -0.0018
vn 0.0037 -1.0000 -0.0037
vn 0.1044 -0.0016 0.9945
vn 0.0998 0.0019 -0.9950
usemtl 0
s 1
f 33/97/65 34/98/65 35/99/65
f 34/98/65 36/100/65 35/99/65
f 37/101/66 38/102/66 39/103/66
f 38/102/66 40/104/66 39/103/66
f 37/105/67 39/106/68 35/107/68
f 39/106/68 33/108/69 35/107/68
f 40/109/70 38/110/71 34/111/71
f 38/110/71 36/112/72 34/111/71
f 39/113/73 40/114/73 33/115/73
f 40/114/73 34/116/73 33/115/73
f 35/117/74 36/118/74 37/119/74
f 36/118/74 38/120/74 37/119/74
o cube.004
v 1.222429 25.148478 -0.752191
v 1.229849 22.634922 -0.704976
v 1.221552 25.149357 -1.255060
v 1.225940 22.635012 -1.259457
v 0.721714 25.149267 -1.202572
v 0.726102 22.634920 -1.206968
v 0.719560 25.147600 -0.751315
v 0.723949 22.633253 -0.755712
vt 0.250488 0.577637
vt 0.250488 0.539551
vt 0.257324 0.577637
vt 0.257324 0.539551
vt 0.266113 0.577637
vt 0.266113 0.539551
vt 0.272949 0.577637
vt 0.272949 0.539551
vt 0.265137 0.578613
vt 0.265137 0.585449
vt 0.258301 0.578613
vt 0.258301 0.585449
vt 0.272949 0.585449
vt 0.272949 0.578613
vt 0.266113 0.585449
vt 0.266113 0.578613
vt 0.273926 0.577637
vt 0.273926 0.539551
vt 0.280762 0.577637
vt 0.280762 0.539551
vt 0.258301 0.577637
vt 0.258301 0.539551
vt 0.265137 0.577637
vt 0.265137 0.539551
vn 1.0000 0.0029 -0.0017
vn 1.0000 0.0019 -0.0064
vn 1.0000 0.0028 -0.0025
vn 1.0000 0.0018 -0.0070
vn -1.0000 -0.0017 -0.0048
vn 0.0002 1.0000 0.0037
vn -0.0008 1.0000 0.0027
vn -0.0017 1.0000 0.0017
vn 0.0037 -1.0000 -0.0037
vn 0.0018 -1.0000 -0.0018
vn 0.0002 -1.0000 -0.0002
vn 0.0017 -0.0017 1.0000
vn -0.0871 0.0159 0.9961
vn -0.0112 0.0008 0.9999
vn -0.0998 0.0184 0.9948
vn -0.1044 0.0016 -0.9945
usemtl 0
s 1
f 41/121/75 42/122/76 43/123/77
f 42/122/76 44/124/78 43/123/77
f 45/125/79 46/126/79 47/127/79
f 46/126/79 48/128/79 47/127/79
f 45/129/80 47/130/81 43/131/81
f 47/130/81 41/132/82 43/131/81
f 48/133/83 46/134/84 42/135/84
f 46/134/84 44/136/85 42/135/84
f 47/137/86 48/138/87 41/139/88
f 48/138/87 42/140/89 41/139/88
f 43/141/90 44/142/90 45/143/90
f 44/142/90 46/144/90 45/143/90
o cube.005
v 0.722193 25.144966 0.757293
v 0.726582 22.630621 0.752896
v 0.719560 25.147600 -0.751315
v 0.723949 22.633253 -0.755712
v -0.789047 25.144962 -0.748686
v -0.784659 22.630617 -0.753083
v -0.786415 25.142328 0.759921
v -0.782026 22.627983 0.755524
vt 0.226074 0.562012
vt 0.226074 0.523926
vt 0.203613 0.562012
vt 0.203613 0.523926
vt 0.179199 0.562012
vt 0.179199 0.523926
vt 0.156738 0.562012
vt 0.156738 0.523926
vt 0.180176 0.562988
vt 0.180176 0.585449
vt 0.202637 0.562988
vt 0.202637 0.585449
vt 0.203613 0.585449
vt 0.203613 0.562988
vt 0.226074 0.585449
vt 0.226074 0.562988
vt 0.249512 0.562012
vt 0.249512 0.523926
vt 0.227051 0.562012
vt 0.227051 0.523926
vt 0.202637 0.562012
vt 0.202637 0.523926
vt 0.180176 0.562012
vt 0.180176 0.523926
vn 1.0000 0.0017 -0.0017
vn -1.0000 -0.0017 0.0017
vn -0.0017 1.0000 0.0017
vn -0.0017 1.0000 0.0018
vn 0.0017 -1.0000 -0.0017
vn 0.0017 -0.0017 1.0000
vn -0.0017 0.0017 -1.0000
usemtl 0
s 1
f 49/145/91 50/146/91 51/147/91
f 50/146/91 52/148/91 51/147/91
f 53/149/92 54/150/92 55/151/92
f 54/150/92 56/152/92 55/151/92
f 53/153/93 55/154/93 51/155/93
f 55/154/93 49/156/94 51/155/93
f 56/157/95 54/158/95 50/159/95
f 54/158/95 52/160/95 50/159/95
f 55/161/96 56/162/96 49/163/96
f 56/162/96 50/164/96 49/163/96
f 51/165/97 52/166/97 53/167/97
f 52/166/97 54/168/97 53/167/97
o cube.006
v 1.731841 25.648628 1.813771
v 1.732718 25.145760 1.812891
v 1.725697 25.654774 -1.706313
v 1.726575 25.151903 -1.707193
v -1.794387 25.648617 -1.700181
v -1.793510 25.145748 -1.701060
v -1.791275 25.641685 1.768291
v -1.787366 25.139606 1.819024
vt 0.000488 0.593262
vt 0.000488 0.586426
vt 0.054199 0.593262
vt 0.054199 0.586426
vt 0.109863 0.593262
vt 0.109863 0.586426
vt 0.163574 0.593262
vt 0.163574 0.586426
vt 0.108887 0.594238
vt 0.108887 0.647949
vt 0.055176 0.594238
vt 0.055176 0.647949
vt 0.163574 0.647949
vt 0.163574 0.594238
vt 0.109863 0.647949
vt 0.109863 0.594238
vt 0.164551 0.593262
vt 0.164551 0.586426
vt 0.218262 0.593262
vt 0.218262 0.586426
vt 0.055176 0.593262
vt 0.055176 0.586426
vt 0.108887 0.593262
vt 0.108887 0.586426
vn 1.0000 0.0017 -0.0017
vn -1.0000 -0.0017 0.0009
vn -1.0000 -0.0023 0.0010
vn -1.0000 -0.0071 0.0017
vn -1.0000 -0.0076 0.0017
vn -0.0017 1.0000 0.0020
vn -0.0019 1.0000 0.0019
vn -0.0020 1.0000 0.0017
vn 0.0017 -1.0000 -0.0017
vn -0.0130 0.1004 0.9949
vn -0.0117 0.0913 0.9958
vn 0.0004 0.0075 1.0000
vn 0.0017 -0.0017 1.0000
vn -0.0017 0.0017 -1.0000
usemtl 0
s 1
f 57/169/98 58/170/98 59/171/98
f 58/170/98 60/172/98 59/171/98
f 61/173/99 62/174/100 63/175/101
f 62/174/100 64/176/102 63/175/101
f 61/177/103 63/178/104 59/179/104
f 63/178/104 57/180/105 59/179/104
f 64/181/106 62/182/106 58/183/106
f 62/182/106 60/184/106 58/183/106
f 63/185/107 64/186/108 57/187/109
f 64/186/108 58/188/110 57/187/109
f 59/189/111 60/190/111 61/191/111
f 60/190/111 62/192/111 61/191/111
o cube.007
v 1.224185 26.150705 1.261045
v 1.225063 25.647837 1.260165
v 1.219796 26.155094 -1.253301
v 1.220674 25.652225 -1.254181
v -1.294549 26.150698 -1.248921
v -1.293672 25.647829 -1.249800
v -1.290161 26.146311 1.265425
v -1.289284 25.643442 1.264546
vt 0.219238 0.608887
vt 0.219238 0.602051
vt 0.257324 0.608887
vt 0.257324 0.602051
vt 0.297363 0.608887
vt 0.297363 0.602051
vt 0.335449 0.608887
vt 0.335449 0.602051
vt 0.296387 0.609863
vt 0.296387 0.647949
vt 0.258301 0.609863
vt 0.258301 0.647949
vt 0.335449 0.647949
vt 0.335449 0.609863
vt 0.297363 0.647949
vt 0.297363 0.609863
vt 0.336426 0.608887
vt 0.336426 0.602051
vt 0.374512 0.608887
vt 0.374512 0.602051
vt 0.258301 0.608887
vt 0.258301 0.602051
vt 0.296387 0.608887
vt 0.296387 0.602051
vn 1.0000 0.0017 -0.0017
vn -1.0000 -0.0017 0.0017
vn -0.0017 1.0000 0.0018
vn -0.0017 1.0000 0.0017
vn 0.0017 -1.0000 -0.0017
vn 0.0017 -1.0000 -0.0018
vn 0.0017 -0.0017 1.0000
vn -0.0017 0.0017 -1.0000
usemtl 0
s 1
f 65/193/112 66/194/112 67/195/112
f 66/194/112 68/196/112 67/195/112
f 69/197/113 70/198/113 71/199/113
f 70/198/113 72/200/113 71/199/113
f 69/201/114 71/202/115 67/203/115
f 71/202/115 65/204/115 67/203/115
f 72/205/116 70/206/116 66/207/116
f 70/206/116 68/208/117 66/207/116
f 71/209/118 72/210/118 65/211/118
f 72/210/118 66/212/118 65/211/118
f 67/213/119 68/214/119 69/215/119
f 68/214/119 70/216/119 69/215/119
